<!-- <svg fill="#ffffff" width="64px" height="64px" viewBox="0 0 24 24" xmlns="http://www.w3.org/2000/svg" stroke="#ffffff"><g id="SVGRepo_bgCarrier" stroke-width="0"></g><g id="SVGRepo_tracerCarrier" stroke-linecap="round" stroke-linejoin="round"></g><g id="SVGRepo_iconCarrier"><path d="M7.293,13.707a1,1,0,1,1,1.414-1.414L11,14.586V3a1,1,0,0,1,2,0V14.586l2.293-2.293a1,1,0,0,1,1.414,1.414l-4,4a1,1,0,0,1-.325.216.986.986,0,0,1-.764,0,1,1,0,0,1-.325-.216ZM22,12a1,1,0,0,0-1,1v7H3V13a1,1,0,0,0-2,0v8a1,1,0,0,0,1,1H22a1,1,0,0,0,1-1V13A1,1,0,0,0,22,12Z"></path></g></svg> -->
<svg viewBox="0 0 24 24" xmlns="http://www.w3.org/2000/svg" fill="#ffffff" stroke="#ffffff"><g id="SVGRepo_bgCarrier" stroke-width="0"></g><g id="SVGRepo_tracerCarrier" stroke-linecap="round" stroke-linejoin="round"></g><g id="SVGRepo_iconCarrier"> <title></title> <g id="Complete"> <g id="download"> <g> <path d="M3,12.3v7a2,2,0,0,0,2,2H19a2,2,0,0,0,2-2v-7" fill="none" stroke="#ffffff" stroke-linecap="round" stroke-linejoin="round" stroke-width="2"></path> <g> <polyline data-name="Right" fill="none" id="Right-2" points="7.9 12.3 12 16.3 16.1 12.3" stroke="#ffffff" stroke-linecap="round" stroke-linejoin="round" stroke-width="2"></polyline> <line fill="none" stroke="#ffffff" stroke-linecap="round" stroke-linejoin="round" stroke-width="2" x1="12" x2="12" y1="2.7" y2="14.2"></line> </g> </g> </g> </g> </g></svg>